HIERARCHY
ROOT newVegas:Hips
{
	OFFSET 0.000000 96.479958 0.000000
	CHANNELS 6 Xposition Yposition Zposition Xrotation Yrotation Zrotation
	JOINT newVegas:Pelvis
	{
		OFFSET 0.000000 0.000000 0.000000
		CHANNELS 3 Xrotation Yrotation Zrotation
		JOINT newVegas:LeftUpLeg
		{
			OFFSET 18.735201 -5.666702 -4.541200
			CHANNELS 3 Xrotation Yrotation Zrotation
			JOINT newVegas:LeftLeg
			{
				OFFSET -0.021200 -31.938179 0.493100
				CHANNELS 3 Xrotation Yrotation Zrotation
				JOINT newVegas:LeftFoot
				{
					OFFSET 0.021200 -31.938179 -4.336299
					CHANNELS 3 Xrotation Yrotation Zrotation
					JOINT newVegas:LeftToeBase
					{
						OFFSET 0.943001 -26.722000 15.023500
						CHANNELS 3 Xrotation Yrotation Zrotation
						End Site
						{
							OFFSET 0.000000 30.670183 0.000000
						}
					}
				}
				JOINT newVegas:Left_PantLeg
				{
					OFFSET 0.663870 -9.044666 -1.108900
					CHANNELS 3 Xrotation Yrotation Zrotation
					End Site
					{
						OFFSET 1.415995 20.635357 0.000000
					}
				}
			}
		}
		JOINT newVegas:RightUpLeg
		{
			OFFSET -18.735201 -5.666702 -4.541200
			CHANNELS 3 Xrotation Yrotation Zrotation
			JOINT newVegas:RightLeg
			{
				OFFSET 0.018946 -31.938133 0.493100
				CHANNELS 3 Xrotation Yrotation Zrotation
				JOINT newVegas:RightFoot
				{
					OFFSET -0.018946 -31.938126 -4.336299
					CHANNELS 3 Xrotation Yrotation Zrotation
					JOINT newVegas:RightToeBase
					{
						OFFSET -0.943001 -26.722004 15.023500
						CHANNELS 3 Xrotation Yrotation Zrotation
						End Site
						{
							OFFSET 0.000000 30.670187 0.000000
						}
					}
				}
				JOINT newVegas:Right_PantLeg
				{
					OFFSET -0.661674 -9.044716 -1.108900
					CHANNELS 3 Xrotation Yrotation Zrotation
					End Site
					{
						OFFSET -1.415958 20.635269 0.000000
					}
				}
			}
		}
	}
	JOINT newVegas:Spine
	{
		OFFSET 0.000000 10.199997 -0.299500
		CHANNELS 3 Xrotation Yrotation Zrotation
		JOINT newVegas:Spine1
		{
			OFFSET 0.000000 11.900002 -1.516600
			CHANNELS 3 Xrotation Yrotation Zrotation
			JOINT newVegas:Spine2
			{
				OFFSET 0.000000 13.600006 -2.842500
				CHANNELS 3 Xrotation Yrotation Zrotation
				JOINT newVegas:Neck
				{
					OFFSET 0.000000 9.624100 -2.890100
					CHANNELS 3 Xrotation Yrotation Zrotation
					JOINT newVegas:Head
					{
						OFFSET 0.000000 14.068802 -1.351900
						CHANNELS 3 Xrotation Yrotation Zrotation
						JOINT newVegas:Hair_Back
						{
							OFFSET 0.000000 3.231903 -17.524799
							CHANNELS 3 Xrotation Yrotation Zrotation
							End Site
							{
								OFFSET 0.000000 19.849884 0.000000
							}
						}
						JOINT newVegas:Hair_Front
						{
							OFFSET 0.000000 31.260406 4.573800
							CHANNELS 3 Xrotation Yrotation Zrotation
							JOINT newVegas:Hair_Front1
							{
								OFFSET 0.000000 2.284103 11.993300
								CHANNELS 3 Xrotation Yrotation Zrotation
								JOINT newVegas:Hair_Front2
								{
									OFFSET 0.000000 2.284103 11.993300
									CHANNELS 3 Xrotation Yrotation Zrotation
									End Site
									{
										OFFSET 0.000000 12.208862 0.000000
									}
								}
							}
						}
						JOINT newVegas:Jowel
						{
							OFFSET 0.000000 -7.458206 6.864100
							CHANNELS 3 Xrotation Yrotation Zrotation
							End Site
							{
								OFFSET 0.000000 19.849884 0.000000
							}
						}
					}
				}
				JOINT newVegas:LeftShoulder
				{
					OFFSET 15.263000 10.923401 -0.547700
					CHANNELS 3 Xrotation Yrotation Zrotation
					JOINT newVegas:LeftArm
					{
						OFFSET 25.438599 -2.830597 -13.032500
						CHANNELS 3 Xrotation Yrotation Zrotation
						JOINT newVegas:LeftForeArm
						{
							OFFSET 29.960503 0.000000 0.000000
							CHANNELS 3 Xrotation Yrotation Zrotation
							JOINT newVegas:LeftHand
							{
								OFFSET 27.849251 0.000000 0.000000
								CHANNELS 3 Xrotation Yrotation Zrotation
								JOINT newVegas:LeftHandThumb1
								{
									OFFSET 4.487587 -3.305161 6.305391
									CHANNELS 3 Xrotation Yrotation Zrotation
									JOINT newVegas:LeftHandThumb2
									{
										OFFSET 5.480453 -3.164139 3.164143
										CHANNELS 3 Xrotation Yrotation Zrotation
										JOINT newVegas:LeftHandThumb3
										{
											OFFSET 5.159721 -2.978973 2.978967
											CHANNELS 3 Xrotation Yrotation Zrotation
											End Site
											{
												OFFSET 2.494507 5.926697 1.738678
											}
										}
									}
								}
								JOINT newVegas:LeftHandIndex1
								{
									OFFSET 18.578728 -0.527832 5.208049
									CHANNELS 3 Xrotation Yrotation Zrotation
									JOINT newVegas:LeftHandIndex2
									{
										OFFSET 3.192009 0.000000 0.000000
										CHANNELS 3 Xrotation Yrotation Zrotation
										JOINT newVegas:LeftHandIndex3
										{
											OFFSET 3.835129 0.000000 0.000000
											CHANNELS 3 Xrotation Yrotation Zrotation
											End Site
											{
												OFFSET -0.034599 3.816971 0.371180
											}
										}
									}
								}
								JOINT newVegas:LeftHandMiddle1
								{
									OFFSET 18.476105 0.000000 0.000000
									CHANNELS 3 Xrotation Yrotation Zrotation
									JOINT newVegas:LeftHandMiddle2
									{
										OFFSET 3.324875 0.000000 0.000000
										CHANNELS 3 Xrotation Yrotation Zrotation
										JOINT newVegas:LeftHandMiddle3
										{
											OFFSET 4.596550 0.000000 0.000000
											CHANNELS 3 Xrotation Yrotation Zrotation
											End Site
											{
												OFFSET 0.057701 4.578827 0.399218
											}
										}
									}
								}
								JOINT newVegas:LeftHandRing1
								{
									OFFSET 17.732719 0.121887 -4.201567
									CHANNELS 3 Xrotation Yrotation Zrotation
									JOINT newVegas:LeftHandRing2
									{
										OFFSET 2.733170 0.000000 0.000000
										CHANNELS 3 Xrotation Yrotation Zrotation
										JOINT newVegas:LeftHandRing3
										{
											OFFSET 3.178268 0.000000 0.000000
											CHANNELS 3 Xrotation Yrotation Zrotation
											End Site
											{
												OFFSET 0.119102 3.170624 0.185394
											}
										}
									}
								}
								JOINT newVegas:LeftHandPinky1
								{
									OFFSET 15.989624 -0.606689 -7.535461
									CHANNELS 3 Xrotation Yrotation Zrotation
									JOINT newVegas:LeftHandPinky2
									{
										OFFSET 2.538986 0.000000 0.000000
										CHANNELS 3 Xrotation Yrotation Zrotation
										JOINT newVegas:LeftHandPinky3
										{
											OFFSET 2.593102 0.000000 0.000000
											CHANNELS 3 Xrotation Yrotation Zrotation
											End Site
											{
												OFFSET -0.150902 2.584198 0.152708
											}
										}
									}
								}
							}
							JOINT newVegas:Left_Sleeve
							{
								OFFSET 0.267448 -0.649796 0.577675
								CHANNELS 3 Xrotation Yrotation Zrotation
								End Site
								{
									OFFSET 0.000000 15.991241 0.000000
								}
							}
							JOINT newVegas:Left_CapeC
							{
								OFFSET 15.715958 -8.608795 -6.935905
								CHANNELS 3 Xrotation Yrotation Zrotation
								JOINT newVegas:Left_CapeC1
								{
									OFFSET 0.000000 -8.688499 0.000000
									CHANNELS 3 Xrotation Yrotation Zrotation
									End Site
									{
										OFFSET 0.000000 8.688499 0.000000
									}
								}
							}
						}
						JOINT newVegas:Left_CapeB
						{
							OFFSET 26.118385 -8.608795 -7.079235
							CHANNELS 3 Xrotation Yrotation Zrotation
							JOINT newVegas:Left_CapeB1
							{
								OFFSET 0.000000 -8.688499 0.000000
								CHANNELS 3 Xrotation Yrotation Zrotation
								End Site
								{
									OFFSET 0.000000 8.688499 0.000000
								}
							}
						}
						JOINT newVegas:Left_CapeA
						{
							OFFSET 5.115639 -8.608795 -10.395809
							CHANNELS 3 Xrotation Yrotation Zrotation
							JOINT newVegas:Left_CapeA1
							{
								OFFSET 0.000000 -8.688499 0.000000
								CHANNELS 3 Xrotation Yrotation Zrotation
								End Site
								{
									OFFSET 0.000000 8.688499 0.000000
								}
							}
						}
					}
				}
				JOINT newVegas:RightShoulder
				{
					OFFSET -15.263000 10.923401 -0.547700
					CHANNELS 3 Xrotation Yrotation Zrotation
					JOINT newVegas:RightArm
					{
						OFFSET -25.438599 -2.830597 -13.032500
						CHANNELS 3 Xrotation Yrotation Zrotation
						JOINT newVegas:RightForeArm
						{
							OFFSET -29.960503 0.000000 0.000000
							CHANNELS 3 Xrotation Yrotation Zrotation
							JOINT newVegas:RightHand
							{
								OFFSET -27.849251 0.000000 0.000000
								CHANNELS 3 Xrotation Yrotation Zrotation
								JOINT newVegas:RightHandThumb1
								{
									OFFSET -4.487587 -3.305161 6.305391
									CHANNELS 3 Xrotation Yrotation Zrotation
									JOINT newVegas:RightHandThumb2
									{
										OFFSET -5.480453 -3.164139 3.164143
										CHANNELS 3 Xrotation Yrotation Zrotation
										JOINT newVegas:RightHandThumb3
										{
											OFFSET -5.159721 -2.978973 2.978967
											CHANNELS 3 Xrotation Yrotation Zrotation
											End Site
											{
												OFFSET -2.494507 5.926697 1.738678
											}
										}
									}
								}
								JOINT newVegas:RightHandIndex1
								{
									OFFSET -18.578728 -0.527832 5.208049
									CHANNELS 3 Xrotation Yrotation Zrotation
									JOINT newVegas:RightHandIndex2
									{
										OFFSET -3.192009 0.000000 0.000000
										CHANNELS 3 Xrotation Yrotation Zrotation
										JOINT newVegas:RightHandIndex3
										{
											OFFSET -3.835129 0.000000 0.000000
											CHANNELS 3 Xrotation Yrotation Zrotation
											End Site
											{
												OFFSET 0.034599 3.816971 0.371180
											}
										}
									}
								}
								JOINT newVegas:RightHandMiddle1
								{
									OFFSET -18.476105 0.000000 0.000000
									CHANNELS 3 Xrotation Yrotation Zrotation
									JOINT newVegas:RightHandMiddle2
									{
										OFFSET -3.324875 0.000000 0.000000
										CHANNELS 3 Xrotation Yrotation Zrotation
										JOINT newVegas:RightHandMiddle3
										{
											OFFSET -4.596550 0.000000 0.000000
											CHANNELS 3 Xrotation Yrotation Zrotation
											End Site
											{
												OFFSET -0.057701 4.578827 0.399218
											}
										}
									}
								}
								JOINT newVegas:RightHandRing1
								{
									OFFSET -17.732719 0.121887 -4.201567
									CHANNELS 3 Xrotation Yrotation Zrotation
									JOINT newVegas:RightHandRing2
									{
										OFFSET -2.733170 0.000000 0.000000
										CHANNELS 3 Xrotation Yrotation Zrotation
										JOINT newVegas:RightHandRing3
										{
											OFFSET -3.178268 0.000000 0.000000
											CHANNELS 3 Xrotation Yrotation Zrotation
											End Site
											{
												OFFSET -0.119102 3.170624 0.185394
											}
										}
									}
								}
								JOINT newVegas:RightHandPinky1
								{
									OFFSET -15.989624 -0.606689 -7.535461
									CHANNELS 3 Xrotation Yrotation Zrotation
									JOINT newVegas:RightHandPinky2
									{
										OFFSET -2.538986 0.000000 0.000000
										CHANNELS 3 Xrotation Yrotation Zrotation
										JOINT newVegas:RightHandPinky3
										{
											OFFSET -2.593102 0.000000 0.000000
											CHANNELS 3 Xrotation Yrotation Zrotation
											End Site
											{
												OFFSET 0.150902 2.584198 0.152708
											}
										}
									}
								}
							}
							JOINT newVegas:Right_CapeC
							{
								OFFSET -15.715958 -8.608795 -6.935905
								CHANNELS 3 Xrotation Yrotation Zrotation
								JOINT newVegas:Right_CapeC1
								{
									OFFSET 0.000000 -8.688499 0.000000
									CHANNELS 3 Xrotation Yrotation Zrotation
									End Site
									{
										OFFSET 0.000000 8.688499 0.000000
									}
								}
							}
							JOINT newVegas:Right_Sleeve
							{
								OFFSET -0.267448 -0.649994 0.577675
								CHANNELS 3 Xrotation Yrotation Zrotation
								End Site
								{
									OFFSET 0.000000 15.991302 0.000000
								}
							}
						}
						JOINT newVegas:Right_CapeA
						{
							OFFSET -5.115540 -8.608795 -10.395824
							CHANNELS 3 Xrotation Yrotation Zrotation
							JOINT newVegas:Right_CapeA1
							{
								OFFSET 0.000000 -8.688499 0.000000
								CHANNELS 3 Xrotation Yrotation Zrotation
								End Site
								{
									OFFSET 0.000000 8.688499 0.000000
								}
							}
						}
						JOINT newVegas:Right_CapeB
						{
							OFFSET -26.118187 -8.608795 -7.079266
							CHANNELS 3 Xrotation Yrotation Zrotation
							JOINT newVegas:Right_CapeB1
							{
								OFFSET 0.000000 -8.688499 0.000000
								CHANNELS 3 Xrotation Yrotation Zrotation
								End Site
								{
									OFFSET 0.000000 8.688499 0.000000
								}
							}
						}
					}
				}
				JOINT newVegas:Left_Collar
				{
					OFFSET 18.625099 8.655502 8.828100
					CHANNELS 3 Xrotation Yrotation Zrotation
					JOINT newVegas:Left_Collar1
					{
						OFFSET 14.783401 10.540405 -1.259500
						CHANNELS 3 Xrotation Yrotation Zrotation
						End Site
						{
							OFFSET 0.000000 18.199875 0.000000
						}
					}
				}
				JOINT newVegas:Collar_Back
				{
					OFFSET 0.000000 15.630707 -20.132601
					CHANNELS 3 Xrotation Yrotation Zrotation
					End Site
					{
						OFFSET 0.000000 22.523010 0.000000
					}
				}
				JOINT newVegas:Left_Peck
				{
					OFFSET 17.239599 -5.132599 25.482599
					CHANNELS 3 Xrotation Yrotation Zrotation
					End Site
					{
						OFFSET 0.000000 22.523010 0.000000
					}
				}
				JOINT newVegas:Right_Peck
				{
					OFFSET -17.239599 -5.132202 25.482599
					CHANNELS 3 Xrotation Yrotation Zrotation
					End Site
					{
						OFFSET 0.000000 22.523010 0.000000
					}
				}
				JOINT newVegas:Right_Collar
				{
					OFFSET -18.625099 8.655792 8.828100
					CHANNELS 3 Xrotation Yrotation Zrotation
					JOINT newVegas:Right_Collar1
					{
						OFFSET -14.783401 10.539993 -1.259500
						CHANNELS 3 Xrotation Yrotation Zrotation
						End Site
						{
							OFFSET 0.000000 18.199631 0.000000
						}
					}
				}
			}
		}
		JOINT newVegas:Belly
		{
			OFFSET 0.000000 -6.540398 9.014299
			CHANNELS 3 Xrotation Yrotation Zrotation
			End Site
			{
				OFFSET 0.000000 11.566666 0.000000
			}
		}
	}
	JOINT newVegas:ElvisFacialAnim_Joint
	{
		OFFSET 1.000000 -95.330101 -8.825800
		CHANNELS 3 Xrotation Yrotation Zrotation
		End Site
		{
			OFFSET 0.000000 35.315800 0.000000
		}
	}
}
MOTION
Frames: 4
Frame Time: 0.016667
15.868114 84.146164 -24.322327 155.492275 -33.176380 160.410462 -0.000000 -0.000004 0.000001 -9.064005 37.105122 20.434302 21.337823 21.307513 -0.326103 -14.839436 15.012495 -33.756909 -0.000000 0.000000 -0.000000 -0.000001 0.000000 -0.000000 -67.819011 17.316189 12.695046 38.179064 -0.104256 2.838709 3.642766 -6.019392 7.002390 -0.000000 0.000002 -0.000000 0.000001 0.000000 -0.000000 36.380087 3.353072 9.172625 -9.351828 -3.570434 1.181060 -9.435596 -2.352110 2.017856 -2.379832 -1.584632 -1.006919 -2.379834 -1.584622 -1.006927 -0.000000 -0.000000 0.000001 -2.379746 -1.584620 -1.006916 -2.379835 -1.584628 -1.006925 -0.000000 -0.000001 0.000001 -0.000000 -0.000000 0.000000 5.744833 -10.522763 24.025843 -67.510594 -3.722629 -45.267991 1.348467 -68.597625 4.202980 -49.957318 9.172164 6.229484 17.551612 -5.699230 -12.932290 10.850480 26.127774 8.644846 -0.000003 -0.000003 -0.000003 13.980899 1.201518 -55.004357 0.370803 1.161730 -65.441900 0.000000 -0.000001 -0.000001 7.504727 1.174437 -63.778490 1.807805 1.475679 -64.567978 0.000000 0.000001 0.000001 8.574329 2.179079 -75.148992 -0.207636 1.009267 -57.855049 -0.000000 0.000001 0.000001 10.030099 13.637075 -84.750237 0.877101 0.062254 -64.595490 0.000002 0.000000 0.000000 -0.000002 -0.000000 -0.000000 -0.000002 -0.000000 -0.000000 -0.000003 -0.000000 -0.000000 -0.000001 -0.000002 -0.000003 -0.000001 -0.000002 -0.000003 -0.000001 -0.000002 -0.000003 -0.000001 -0.000002 -0.000004 8.424592 8.375888 -5.507271 -1.238763 1.267739 68.329178 13.833014 26.209111 -4.662800 1.309582 4.198877 -0.028691 18.220810 -5.165857 -16.100677 -6.245503 -30.512507 3.865920 0.000001 -0.000001 0.000001 8.324401 -2.978354 13.360783 -2.420658 -1.364229 30.156487 -0.000001 -0.000003 0.000005 -0.657855 -4.404963 22.423716 0.269047 -5.521304 37.097250 0.000001 0.000000 -0.000001 -4.177268 -8.849775 22.910729 4.057605 -1.935979 44.316665 -0.000003 0.000001 0.000001 -16.086313 -11.774059 19.303177 10.677802 -2.614211 41.806297 -0.000001 0.000003 0.000001 0.000001 -0.000002 -0.000001 -0.000001 0.000001 0.000000 0.000001 -0.000002 -0.000001 0.000000 0.000003 0.000002 0.000000 0.000003 0.000001 0.000000 0.000003 0.000002 0.000000 0.000003 0.000002 0.000003 -0.000001 0.000002 0.000003 -0.000001 0.000002 0.000003 -0.000001 0.000002 0.000003 -0.000001 0.000002 0.000003 -0.000001 0.000002 0.000003 -0.000001 0.000002 0.000003 -0.000001 0.000002 0.000001 0.000000 0.000002 -0.000000 -0.000004 0.000001 
15.810968 84.255859 -24.370201 155.645395 -33.371379 160.582529 -0.000002 0.000000 -0.000000 -8.220818 37.070510 19.859029 20.361974 21.485914 -0.224467 -14.416084 14.903749 -33.632268 0.000000 0.000001 0.000000 0.000003 -0.000001 -0.000000 -67.419950 17.211471 12.455499 38.176291 -0.065534 2.840488 3.514836 -5.918177 6.904108 -0.000000 -0.000002 -0.000000 -0.000000 0.000001 -0.000001 36.339028 3.387898 9.220554 -9.302402 -3.573407 1.240603 -9.386064 -2.346659 2.077848 -2.453660 -1.940286 -0.915823 -2.453653 -1.940277 -0.915820 -0.000000 0.000002 -0.000001 -2.453662 -1.940289 -0.915817 -2.453658 -1.940310 -0.915811 -0.000003 0.000000 0.000002 -0.000000 0.000002 -0.000000 5.600711 -10.392676 23.545701 -67.435038 -3.677394 -45.248142 1.632218 -68.445271 4.470496 -49.937122 9.068367 6.209514 17.551611 -5.699230 -12.932290 10.850481 26.127779 8.644844 -0.000002 -0.000001 -0.000001 13.980903 1.201518 -55.004353 0.370800 1.161732 -65.441893 -0.000001 -0.000000 0.000000 7.504728 1.174438 -63.778490 1.807804 1.475680 -64.567978 0.000000 0.000002 0.000000 8.574332 2.179079 -75.148979 -0.207633 1.009266 -57.855056 0.000001 0.000001 0.000001 10.030102 13.637077 -84.750230 0.877098 0.062254 -64.595490 0.000002 0.000000 -0.000001 0.000001 -0.000001 0.000001 0.000001 -0.000001 0.000001 0.000000 -0.000001 0.000001 0.000001 -0.000002 0.000001 -0.000000 -0.000002 0.000002 0.000001 -0.000002 0.000001 -0.000001 -0.000002 0.000000 8.387662 8.109953 -5.631593 -1.325124 1.460307 68.468309 13.559643 26.271834 -4.380977 1.637690 4.236952 0.170602 18.207643 -5.153459 -16.107055 -6.281842 -30.420720 3.877072 0.000001 -0.000001 0.000001 8.217440 -2.911590 13.348500 -2.416342 -1.394020 30.239874 -0.000000 -0.000000 0.000005 -0.797123 -4.366862 22.488063 0.278305 -5.517102 37.121713 0.000004 0.000001 -0.000000 -4.248831 -8.728388 23.054470 4.015904 -2.019621 44.438908 -0.000004 -0.000001 0.000000 -16.404432 -11.839662 19.617958 10.678529 -2.615757 41.769779 0.000002 0.000002 0.000000 0.000001 0.000001 -0.000000 -0.000000 -0.000000 0.000000 0.000001 0.000001 -0.000000 -0.000000 -0.000001 0.000003 0.000000 0.000000 0.000002 -0.000000 -0.000001 0.000003 0.000000 0.000000 0.000003 -0.000002 -0.000000 -0.000001 -0.000002 -0.000000 -0.000001 -0.000002 -0.000000 -0.000001 -0.000002 -0.000000 -0.000001 -0.000002 -0.000000 -0.000001 -0.000002 -0.000000 -0.000001 -0.000002 -0.000000 -0.000001 0.000002 0.000001 -0.000003 -0.000002 0.000000 -0.000000 
15.763866 84.352730 -24.401524 155.773133 -33.558225 160.767203 0.000001 0.000002 -0.000001 -7.423341 37.016378 19.268604 19.446016 21.654141 -0.127313 -14.020919 14.810160 -33.497225 -0.000000 0.000001 -0.000000 0.000001 -0.000001 -0.000001 -67.081487 17.118571 12.158252 38.256842 -1.131771 2.760892 3.411020 -4.666126 6.868806 -0.000000 0.000000 -0.000000 -0.000000 0.000004 -0.000000 36.266071 3.412754 9.267723 -9.262705 -3.564026 1.268314 -9.346574 -2.337918 2.102959 -2.502135 -2.160321 -0.866470 -2.502136 -2.160316 -0.866476 -0.000004 0.000002 -0.000000 -2.502135 -2.160314 -0.866472 -2.502136 -2.160319 -0.866470 -0.000001 -0.000000 0.000000 -0.000004 0.000002 -0.000000 5.455861 -10.276588 23.062287 -67.354510 -3.637412 -45.228068 1.900067 -68.291694 4.723998 -49.919674 8.973187 6.196752 17.551611 -5.699231 -12.932290 10.850485 26.127774 8.644848 -0.000001 -0.000001 -0.000003 13.980901 1.201518 -55.004353 0.370801 1.161731 -65.441900 -0.000000 -0.000002 -0.000001 7.504725 1.174438 -63.778483 1.807803 1.475679 -64.567971 0.000001 0.000000 0.000001 8.574332 2.179080 -75.148979 -0.207634 1.009265 -57.855056 -0.000000 -0.000001 0.000002 10.030099 13.637076 -84.750237 0.877101 0.062251 -64.595490 0.000003 -0.000001 -0.000003 -0.000001 -0.000001 -0.000001 -0.000001 -0.000001 -0.000001 -0.000002 -0.000000 -0.000001 0.000001 0.000003 -0.000000 0.000000 0.000002 -0.000000 0.000001 0.000003 -0.000000 0.000001 0.000003 -0.000001 8.353428 7.968177 -5.710315 -1.302528 1.649690 68.639248 13.413289 26.330427 -4.243880 1.725156 4.280978 0.377625 18.194480 -5.141169 -16.113444 -6.316185 -30.331607 3.889168 -0.000000 -0.000000 0.000003 8.114763 -2.847554 13.337021 -2.411873 -1.422826 30.319886 -0.000000 -0.000002 0.000003 -0.930836 -4.330626 22.550033 0.287442 -5.512983 37.145164 0.000002 0.000001 0.000000 -4.318080 -8.612262 23.192558 3.976691 -2.100067 44.556227 0.000001 -0.000003 -0.000001 -16.709569 -11.906601 19.920013 10.679294 -2.617315 41.733180 0.000003 0.000003 0.000005 -0.000000 0.000002 -0.000000 -0.000000 0.000000 0.000000 -0.000000 0.000001 -0.000000 -0.000001 -0.000003 -0.000002 -0.000001 -0.000003 -0.000003 -0.000001 -0.000003 -0.000002 -0.000000 -0.000003 -0.000002 0.000000 0.000003 -0.000002 0.000000 0.000003 -0.000002 0.000000 0.000003 -0.000002 0.000000 0.000003 -0.000002 0.000000 0.000003 -0.000002 0.000000 0.000003 -0.000002 0.000000 0.000003 -0.000002 -0.000000 -0.000001 0.000001 0.000001 0.000002 -0.000001 
15.721527 84.444420 -24.424934 155.889765 -33.741408 160.957520 0.000001 -0.000002 0.000000 -6.642104 36.951501 18.669197 18.545463 21.819333 -0.030167 -13.633953 14.720847 -33.354761 -0.000000 0.000000 -0.000000 -0.000001 0.000001 -0.000000 -66.769662 17.011163 11.889756 38.295330 -0.937503 2.776961 3.299963 -4.684227 6.778145 -0.000000 0.000002 -0.000000 -0.000001 0.000001 -0.000000 36.179024 3.434248 9.314063 -9.227465 -3.548995 1.281479 -9.311683 -2.327703 2.112158 -2.539258 -2.318461 -0.836698 -2.539246 -2.318449 -0.836704 -0.000003 0.000001 0.000000 -2.539245 -2.318432 -0.836708 -2.539250 -2.318466 -0.836699 0.000003 -0.000001 0.000001 -0.000003 0.000001 0.000000 5.312887 -10.162605 22.584275 -67.273982 -3.603537 -45.213827 2.101652 -68.140440 4.908479 -49.904391 8.881465 6.194705 17.551617 -5.699231 -12.932288 10.850480 26.127777 8.644842 0.000000 -0.000001 -0.000001 13.980901 1.201517 -55.004357 0.370803 1.161730 -65.441893 0.000001 0.000000 0.000000 7.504727 1.174437 -63.778490 1.807804 1.475681 -64.567978 0.000000 0.000000 0.000001 8.574333 2.179078 -75.148986 -0.207635 1.009265 -57.855056 -0.000001 -0.000001 0.000004 10.030101 13.637078 -84.750230 0.877102 0.062254 -64.595490 -0.000001 -0.000003 -0.000001 -0.000001 -0.000001 -0.000002 -0.000001 -0.000001 -0.000002 -0.000002 -0.000000 -0.000002 -0.000001 0.000001 0.000001 -0.000001 0.000001 -0.000001 -0.000001 0.000001 0.000001 -0.000001 0.000001 0.000001 8.320665 7.882603 -5.768236 -1.231536 1.837842 68.823991 13.324715 26.387473 -4.172557 1.703404 4.326793 0.587470 18.181269 -5.128786 -16.119871 -6.348253 -30.245515 3.902251 -0.000001 0.000003 0.000003 8.016906 -2.786409 13.326232 -2.407365 -1.450654 30.396217 -0.000000 0.000000 0.000001 -1.058387 -4.296375 22.609340 0.296485 -5.508846 37.167605 0.000002 -0.000001 0.000002 -4.384630 -8.501908 23.324304 3.940083 -2.176948 44.668085 -0.000002 -0.000001 0.000000 -17.000387 -11.974055 20.207996 10.680029 -2.618815 41.696563 0.000005 0.000005 0.000003 0.000000 0.000001 -0.000000 0.000000 -0.000001 0.000000 0.000000 0.000000 -0.000000 -0.000002 0.000001 0.000001 -0.000002 0.000002 -0.000000 -0.000002 0.000001 0.000001 -0.000002 0.000002 -0.000000 0.000001 -0.000002 0.000001 0.000001 -0.000002 0.000001 0.000001 -0.000002 0.000001 0.000001 -0.000002 0.000001 0.000001 -0.000002 0.000001 0.000001 -0.000002 0.000001 0.000001 -0.000002 0.000001 -0.000002 -0.000001 0.000000 0.000001 -0.000002 0.000000 
